<svg preserveAspectRatio="none" width="100%" height="100%" overflow="visible" style="display: block;" viewBox="0 0 40 40" fill="none" xmlns="http://www.w3.org/2000/svg">
<g id="aov">
<circle id="Ellipse 2833" cx="20" cy="20" r="20" fill="var(--fill-0, #ECFAFF)"/>
<g id="briefcase">
<path id="Vector" d="M26.6667 15.8333H13.3333C12.4129 15.8333 11.6667 16.5795 11.6667 17.5V25.8333C11.6667 26.7538 12.4129 27.5 13.3333 27.5H26.6667C27.5871 27.5 28.3333 26.7538 28.3333 25.8333V17.5C28.3333 16.5795 27.5871 15.8333 26.6667 15.8333Z" stroke="var(--stroke-0, #289BFF)" stroke-width="1.5" stroke-linecap="round" stroke-linejoin="round"/>
<path id="Vector_2" d="M23.3333 27.5V14.1667C23.3333 13.7246 23.1577 13.3007 22.8452 12.9882C22.5326 12.6756 22.1087 12.5 21.6667 12.5H18.3333C17.8913 12.5 17.4674 12.6756 17.1548 12.9882C16.8423 13.3007 16.6667 13.7246 16.6667 14.1667V27.5" stroke="var(--stroke-0, #289BFF)" stroke-width="1.5" stroke-linecap="round" stroke-linejoin="round"/>
</g>
</g>
</svg>
