<svg width="20" height="20" viewBox="0 0 20 20" fill="none" xmlns="http://www.w3.org/2000/svg">
<path d="M10 3.5C10 2.67157 10.6716 2 11.5 2C12.3284 2 13 2.67157 13 3.5V4" stroke="#1E252A" stroke-width="1.2" stroke-linecap="round"/>
<path d="M10 3.5C10 2.67157 9.32843 2 8.5 2C7.67157 2 7 2.67157 7 3.5V4" stroke="#1E252A" stroke-width="1.2" stroke-linecap="round"/>
<path d="M14 5C15.1046 5 16 5.89543 16 7C16 7.74028 15.5978 8.38663 15 8.73244" stroke="#1E252A" stroke-width="1.2" stroke-linecap="round"/>
<path d="M6 5C4.89543 5 4 5.89543 4 7C4 7.74028 4.40215 8.38663 5 8.73244" stroke="#1E252A" stroke-width="1.2" stroke-linecap="round"/>
<path d="M15 10C16.1046 10 17 10.8954 17 12C17 13.1046 16.1046 14 15 14" stroke="#1E252A" stroke-width="1.2" stroke-linecap="round"/>
<path d="M5 10C3.89543 10 3 10.8954 3 12C3 13.1046 3.89543 14 5 14" stroke="#1E252A" stroke-width="1.2" stroke-linecap="round"/>
<path d="M13 15C13 16.6569 11.6569 18 10 18C8.34315 18 7 16.6569 7 15" stroke="#1E252A" stroke-width="1.2" stroke-linecap="round"/>
<path d="M10 4V18" stroke="#1E252A" stroke-width="1.2" stroke-linecap="round"/>
<path d="M7 4H13C13 4 14 4 14 5C14 6 14 9 14 10C14 11 14 14 13 15H7C6 14 6 11 6 10C6 9 6 6 6 5C6 4 7 4 7 4Z" stroke="#1E252A" stroke-width="1.2"/>
</svg>
