<svg width="16" height="16" viewBox="0 0 16 16" fill="none" xmlns="http://www.w3.org/2000/svg">
<path d="M12.7135 3.2867C11.6754 2.24751 10.3232 1.58024 8.8669 1.38856C7.41061 1.19688 5.93178 1.49152 4.66016 2.2267" stroke="white" stroke-width="1.25" stroke-linecap="round" stroke-linejoin="round"/>
<path d="M2.6665 4H2.67317" stroke="white" stroke-linecap="round" stroke-linejoin="round"/>
<path d="M1.52674 6.41332C1.2768 7.43136 1.27046 8.49399 1.50822 9.51494C1.74599 10.5359 2.22116 11.4864 2.89516 12.2893C3.56916 13.0921 4.42299 13.7247 5.38734 14.1357C6.35168 14.5467 7.39935 14.7245 8.4453 14.6547C9.49124 14.5848 10.506 14.2693 11.4071 13.7338C12.3083 13.1982 13.0704 12.4577 13.6317 11.5724C14.193 10.687 14.5375 9.68178 14.6375 8.63828C14.7374 7.59478 14.5898 6.54242 14.2067 5.56665" stroke="white" stroke-width="1.25" stroke-linecap="round" stroke-linejoin="round"/>
<path d="M10.8269 5.17344C10.4432 4.78755 9.98484 4.484 9.47982 4.28136C8.9748 4.07872 8.43375 3.98125 7.88977 3.99491C7.34578 4.00858 6.81031 4.1331 6.3161 4.36085C5.8219 4.58859 5.37936 4.91478 5.01556 5.31945C4.65177 5.72413 4.37437 6.19877 4.20033 6.71434C4.0263 7.22992 3.95929 7.77558 4.0034 8.31795C4.04752 8.86031 4.20183 9.38797 4.45691 9.86864C4.71198 10.3493 5.06244 10.7729 5.48686 11.1134" stroke="white" stroke-linecap="round" stroke-linejoin="round"/>
<path d="M8 12H8.00667" stroke="white" stroke-linecap="round" stroke-linejoin="round"/>
<path d="M11.9932 7.77344C12.0294 8.40769 11.9141 9.04145 11.6568 9.62227C11.3994 10.2031 11.0074 10.7142 10.5132 11.1134" stroke="white" stroke-linecap="round" stroke-linejoin="round"/>
<path d="M7.99984 9.33341C8.73622 9.33341 9.33317 8.73646 9.33317 8.00008C9.33317 7.2637 8.73622 6.66675 7.99984 6.66675C7.26346 6.66675 6.6665 7.2637 6.6665 8.00008C6.6665 8.73646 7.26346 9.33341 7.99984 9.33341Z" stroke="white" stroke-linecap="round" stroke-linejoin="round"/>
<path d="M8.93994 7.05995L12.7133 3.28662" stroke="white" stroke-width="1.25" stroke-linecap="round" stroke-linejoin="round"/>
</svg>
