<svg preserveAspectRatio="none" width="100%" height="100%" overflow="visible" style="display: block;" viewBox="0 0 22 22" fill="none" xmlns="http://www.w3.org/2000/svg">
<g id="fi-rr-check-circle">
<path id="Vector" d="M16.1783 8.58167C16.5008 8.91 16.4958 9.4375 16.1667 9.76L12.4783 13.3808C11.8258 14.0208 10.9858 14.34 10.145 14.34C9.31333 14.34 8.48167 14.0267 7.83167 13.3992L6.24917 11.8433C5.92083 11.5208 5.91667 10.9933 6.23917 10.665C6.56083 10.3358 7.09 10.3317 7.4175 10.655L8.995 12.2058C9.64167 12.8308 10.6625 12.8275 11.3125 12.1908L15 8.57083C15.3275 8.2475 15.8533 8.25333 16.1783 8.58167ZM21 11C21 16.5142 16.5142 21 11 21C5.48583 21 1 16.5142 1 11C1 5.48583 5.48583 1 11 1C16.5142 1 21 5.48583 21 11ZM19.3333 11C19.3333 6.405 15.595 2.66667 11 2.66667C6.405 2.66667 2.66667 6.405 2.66667 11C2.66667 15.595 6.405 19.3333 11 19.3333C15.595 19.3333 19.3333 15.595 19.3333 11Z" fill="var(--fill-0, #5AD1B3)"/>
</g>
</svg>
