<svg preserveAspectRatio="none" width="100%" height="100%" overflow="visible" style="display: block;" viewBox="0 0 21.5 21.5" fill="none" xmlns="http://www.w3.org/2000/svg">
<g id="Frame 1000005235">
<g id="Icon">
<path d="M10.75 20.75C16.2728 20.75 20.75 16.2728 20.75 10.75C20.75 5.22715 16.2728 0.75 10.75 0.75C5.22715 0.75 0.75 5.22715 0.75 10.75C0.75 16.2728 5.22715 20.75 10.75 20.75Z" fill="var(--fill-0, #ECFAFF)"/>
<path d="M13.7502 13.7501V7.75005H7.75019" fill="var(--fill-0, #ECFAFF)"/>
<path d="M13.7502 13.7501V7.75005M13.7502 7.75005H7.75019M13.7502 7.75005L7.75019 13.7499M20.75 10.75C20.75 16.2728 16.2728 20.75 10.75 20.75C5.22715 20.75 0.75 16.2728 0.75 10.75C0.75 5.22715 5.22715 0.75 10.75 0.75C16.2728 0.75 20.75 5.22715 20.75 10.75Z" stroke="var(--stroke-0, #8EB6FF)" stroke-width="1.5" stroke-linecap="round" stroke-linejoin="round"/>
</g>
</g>
</svg>
