<svg width="16" height="16" viewBox="0 0 16 16" fill="none" xmlns="http://www.w3.org/2000/svg">
<path d="M8.00016 8.66659C8.36835 8.66659 8.66683 8.36811 8.66683 7.99992C8.66683 7.63173 8.36835 7.33325 8.00016 7.33325C7.63197 7.33325 7.3335 7.63173 7.3335 7.99992C7.3335 8.36811 7.63197 8.66659 8.00016 8.66659Z" stroke="white" stroke-linecap="round" stroke-linejoin="round"/>
<path d="M13.4666 13.4666C14.8266 12.1133 13.4799 8.55992 10.4666 5.53326C7.43992 2.51992 3.88659 1.17326 2.53326 2.53326C1.17326 3.88659 2.51992 7.43992 5.53326 10.4666C8.55992 13.4799 12.1133 14.8266 13.4666 13.4666Z" stroke="white" stroke-linecap="round" stroke-linejoin="round"/>
<path d="M10.4666 10.4666C13.4799 7.43992 14.8266 3.88659 13.4666 2.53326C12.1133 1.17326 8.55992 2.51992 5.53326 5.53326C2.51992 8.55992 1.17326 12.1133 2.53326 13.4666C3.88659 14.8266 7.43992 13.4799 10.4666 10.4666Z" stroke="white" stroke-linecap="round" stroke-linejoin="round"/>
</svg>
