<svg preserveAspectRatio="none" width="100%" height="100%" overflow="visible" style="display: block;" viewBox="0 0 40 40" fill="none" xmlns="http://www.w3.org/2000/svg">
<g id="items sold">
<circle id="Ellipse 2832" cx="20" cy="20" r="20" fill="var(--fill-0, #ECFAFF)"/>
<g id="baggage-claim" clip-path="url(#clip0_0_48)">
<path id="Vector" d="M28.3333 25H15C14.558 25 14.134 24.8244 13.8215 24.5118C13.5089 24.1993 13.3333 23.7754 13.3333 23.3333V15.8333C13.3333 15.3913 13.1577 14.9674 12.8452 14.6548C12.5326 14.3423 12.1087 14.1667 11.6667 14.1667" stroke="var(--stroke-0, #289BFF)" stroke-width="1.5" stroke-linecap="round" stroke-linejoin="round"/>
<path id="Vector_2" d="M24.1667 21.6667V13.3333C24.1667 12.8913 23.9911 12.4674 23.6785 12.1548C23.366 11.8423 22.942 11.6667 22.5 11.6667H21.6667C21.2246 11.6667 20.8007 11.8423 20.4882 12.1548C20.1756 12.4674 20 12.8913 20 13.3333V21.6667" stroke="var(--stroke-0, #289BFF)" stroke-width="1.5" stroke-linecap="round" stroke-linejoin="round"/>
<path id="Vector_3" d="M26.6667 15H17.5C17.0398 15 16.6667 15.3731 16.6667 15.8333V20.8333C16.6667 21.2936 17.0398 21.6667 17.5 21.6667H26.6667C27.1269 21.6667 27.5 21.2936 27.5 20.8333V15.8333C27.5 15.3731 27.1269 15 26.6667 15Z" stroke="var(--stroke-0, #289BFF)" stroke-width="1.5" stroke-linecap="round" stroke-linejoin="round"/>
<path id="Vector_4" d="M25 28.3333C25.9205 28.3333 26.6667 27.5871 26.6667 26.6667C26.6667 25.7462 25.9205 25 25 25C24.0795 25 23.3333 25.7462 23.3333 26.6667C23.3333 27.5871 24.0795 28.3333 25 28.3333Z" stroke="var(--stroke-0, #289BFF)" stroke-width="1.5" stroke-linecap="round" stroke-linejoin="round"/>
<path id="Vector_5" d="M17.5 28.3333C18.4205 28.3333 19.1667 27.5871 19.1667 26.6667C19.1667 25.7462 18.4205 25 17.5 25C16.5795 25 15.8333 25.7462 15.8333 26.6667C15.8333 27.5871 16.5795 28.3333 17.5 28.3333Z" stroke="var(--stroke-0, #289BFF)" stroke-width="1.5" stroke-linecap="round" stroke-linejoin="round"/>
</g>
</g>
<defs>
<clipPath id="clip0_0_48">
<rect width="20" height="20" fill="white" transform="translate(10 10)"/>
</clipPath>
</defs>
</svg>
