<svg width="16" height="16" viewBox="0 0 16 16" fill="none" xmlns="http://www.w3.org/2000/svg">
<path d="M8 1.33325C7.46957 1.33325 6.96086 1.54397 6.58579 1.91904C6.21071 2.29411 6 2.80282 6 3.33325V7.99992C6 8.53035 6.21071 9.03906 6.58579 9.41413C6.96086 9.7892 7.46957 9.99992 8 9.99992C8.53043 9.99992 9.03914 9.7892 9.41421 9.41413C9.78929 9.03906 10 8.53035 10 7.99992V3.33325C10 2.80282 9.78929 2.29411 9.41421 1.91904C9.03914 1.54397 8.53043 1.33325 8 1.33325Z" stroke="black" stroke-linecap="round" stroke-linejoin="round"/>
<path d="M12.6668 6.66675V8.00008C12.6668 9.23776 12.1752 10.4247 11.3 11.2999C10.4248 12.1751 9.23784 12.6667 8.00016 12.6667C6.76249 12.6667 5.5755 12.1751 4.70033 11.2999C3.82516 10.4247 3.3335 9.23776 3.3335 8.00008V6.66675" stroke="black" stroke-linecap="round" stroke-linejoin="round"/>
<path d="M8 12.6667V14.6667" stroke="black" stroke-linecap="round" stroke-linejoin="round"/>
</svg>
