<svg preserveAspectRatio="none" width="100%" height="100%" overflow="visible" style="display: block;" viewBox="0 0 36.5259 25.9997" fill="none" xmlns="http://www.w3.org/2000/svg">
<g id="Group 16">
<path id="Rectangle 2358" d="M10.6553 0.375C12.933 0.375199 14.5626 2.57608 13.8984 4.75488L8.31836 23.0557C7.88371 24.4812 6.5684 25.4561 5.07812 25.4561C2.80342 25.4558 1.17531 23.2572 1.83789 21.0811L7.41113 2.77832C7.84591 1.3507 9.1629 0.375 10.6553 0.375Z" stroke="var(--stroke-0, #3E4C60)" stroke-width="0.75"/>
<path id="Rectangle 2359" d="M20.9584 0.375052C23.2362 0.375251 24.8657 2.57614 24.2016 4.75494L18.6215 23.0557C18.1869 24.4812 16.8716 25.4561 15.3813 25.4561C13.1066 25.4559 11.4785 23.2573 12.141 21.0811L17.7143 2.77837C18.1491 1.35075 19.4661 0.375052 20.9584 0.375052Z" stroke="var(--stroke-0, #3E4C60)" stroke-width="0.75"/>
<path id="Rectangle 2360" d="M26.5404 12.5093C24.1486 12.3108 22.5132 14.8183 23.638 16.9592L27.0495 23.4528C27.5463 24.3982 28.4915 25.0268 29.5477 25.1146C31.9369 25.3131 33.572 22.8089 32.4497 20.6696L29.0423 14.1744C28.5454 13.2272 27.5982 12.5973 26.5404 12.5093Z" stroke="var(--stroke-0, #3E4C60)" stroke-width="0.75"/>
</g>
</svg>
