<svg preserveAspectRatio="none" width="100%" height="100%" overflow="visible" style="display: block;" viewBox="0 0 13 13" fill="none" xmlns="http://www.w3.org/2000/svg">
<path id="Vector" d="M6.5 2.00819C6.50223 1.63299 6.36366 1.2706 6.11167 0.992562C5.85968 0.714526 5.51257 0.541059 5.13889 0.506411C4.76521 0.471763 4.39211 0.578452 4.09328 0.805413C3.79444 1.03237 3.59158 1.36311 3.52475 1.73232C3.32701 1.76935 3.13875 1.84579 2.97117 1.95708C2.80359 2.06837 2.66012 2.21223 2.54931 2.38009C2.43849 2.54796 2.36259 2.73641 2.32612 2.93421C2.28966 3.13201 2.29337 3.33513 2.33705 3.53147C2.06632 3.57952 1.81401 3.70106 1.60771 3.88282C1.40141 4.06457 1.24907 4.29953 1.16733 4.56201C1.0856 4.82449 1.07762 5.10439 1.14427 5.3711C1.21093 5.63781 1.34964 5.88106 1.54525 6.07426C1.21625 6.22612 0.940774 6.47374 0.754869 6.78472C0.568964 7.0957 0.481294 7.45554 0.503332 7.81716C0.525371 8.17878 0.656092 8.52532 0.878387 8.81143C1.10068 9.09754 1.40419 9.30989 1.7492 9.42068C1.68333 9.66948 1.68262 9.93104 1.74715 10.1802C1.81168 10.4293 1.93927 10.6577 2.11764 10.8432C2.29602 11.0288 2.51916 11.1653 2.7656 11.2397C3.01204 11.3141 3.27348 11.3237 3.52475 11.2678C3.59142 11.636 3.79337 11.9659 4.09092 12.1928C4.38847 12.4197 4.76013 12.5272 5.13289 12.4941C5.50566 12.4611 5.85259 12.2899 6.10554 12.0141C6.3585 11.7384 6.49919 11.3781 6.5 11.0039C6.50081 11.3781 6.64151 11.7384 6.89446 12.0141C7.14741 12.2899 7.49434 12.4611 7.86711 12.4941C8.23987 12.5272 8.61153 12.4197 8.90908 12.1928C9.20664 11.9659 9.40858 11.636 9.47525 11.2678C9.72652 11.3237 9.98796 11.3141 10.2344 11.2397C10.4808 11.1653 10.704 11.0288 10.8824 10.8432C11.0607 10.6577 11.1883 10.4293 11.2529 10.1802C11.3174 9.93104 11.3167 9.66948 11.2508 9.42068C11.5958 9.30989 11.8993 9.09754 12.1216 8.81143C12.3439 8.52532 12.4746 8.17878 12.4967 7.81716C12.5187 7.45554 12.431 7.0957 12.2451 6.78472C12.0592 6.47374 11.7837 6.22612 11.4548 6.07426C11.6504 5.88106 11.7891 5.63781 11.8557 5.3711C11.9224 5.10439 11.9144 4.82449 11.8327 4.56201C11.7509 4.29953 11.5986 4.06457 11.3923 3.88282C11.186 3.70106 10.9337 3.57952 10.663 3.53147C10.7066 3.33513 10.7103 3.13201 10.6739 2.93421C10.6374 2.73641 10.5615 2.54796 10.4507 2.38009C10.3399 2.21223 10.1964 2.06837 10.0288 1.95708C9.86125 1.84579 9.67299 1.76935 9.47525 1.73232C9.40842 1.36311 9.20556 1.03237 8.90672 0.805413C8.60789 0.578452 8.23479 0.471763 7.86111 0.506411C7.48743 0.541059 7.14033 0.714526 6.88833 0.992562C6.63634 1.2706 6.49778 1.63299 6.5 2.00819Z" stroke="var(--stroke-0, #1E252A)" stroke-linecap="round" stroke-linejoin="round"/>
</svg>
