<svg preserveAspectRatio="none" width="100%" height="100%" overflow="visible" style="display: block;" viewBox="0 0 16 16" fill="none" xmlns="http://www.w3.org/2000/svg">
<g id="radar" clip-path="url(#clip0_0_33)">
<path id="Vector" d="M12.7133 3.28667C11.6753 2.24748 10.323 1.58021 8.86674 1.38853C7.41045 1.19685 5.93163 1.49149 4.66 2.22667" stroke="var(--stroke-0, white)" stroke-width="1.25" stroke-linecap="round" stroke-linejoin="round"/>
<path id="Vector_2" d="M2.66667 4H2.67333" stroke="var(--stroke-0, white)" stroke-linecap="round" stroke-linejoin="round"/>
<path id="Vector_3" d="M1.52667 6.41333C1.27673 7.43137 1.27039 8.49401 1.50815 9.51496C1.74592 10.5359 2.22109 11.4864 2.89509 12.2893C3.56909 13.0921 4.42292 13.7248 5.38727 14.1358C6.35161 14.5467 7.39928 14.7245 8.44523 14.6547C9.49117 14.5849 10.5059 14.2694 11.407 13.7338C12.3082 13.1982 13.0703 12.4577 13.6316 11.5724C14.1929 10.687 14.5375 9.6818 14.6374 8.6383C14.7373 7.5948 14.5897 6.54244 14.2067 5.56667" stroke="var(--stroke-0, white)" stroke-width="1.25" stroke-linecap="round" stroke-linejoin="round"/>
<path id="Vector_4" d="M10.8267 5.17333C10.443 4.78744 9.98465 4.48389 9.47963 4.28125C8.97461 4.07861 8.43356 3.98114 7.88958 3.9948C7.34559 4.00847 6.81012 4.13299 6.31591 4.36074C5.82171 4.58848 5.37917 4.91467 5.01537 5.31934C4.65158 5.72402 4.37418 6.19866 4.20014 6.71423C4.02611 7.22981 3.9591 7.77547 4.00321 8.31784C4.04733 8.8602 4.20164 9.38786 4.45672 9.86853C4.71179 10.3492 5.06225 10.7728 5.48667 11.1133" stroke="var(--stroke-0, white)" stroke-linecap="round" stroke-linejoin="round"/>
<path id="Vector_5" d="M8 12H8.00667" stroke="var(--stroke-0, white)" stroke-linecap="round" stroke-linejoin="round"/>
<path id="Vector_6" d="M11.9933 7.77333C12.0296 8.40758 11.9143 9.04135 11.6569 9.62216C11.3995 10.203 11.0075 10.7141 10.5133 11.1133" stroke="var(--stroke-0, white)" stroke-linecap="round" stroke-linejoin="round"/>
<path id="Vector_7" d="M8 9.33333C8.73638 9.33333 9.33333 8.73638 9.33333 8C9.33333 7.26362 8.73638 6.66667 8 6.66667C7.26362 6.66667 6.66667 7.26362 6.66667 8C6.66667 8.73638 7.26362 9.33333 8 9.33333Z" stroke="var(--stroke-0, white)" stroke-linecap="round" stroke-linejoin="round"/>
<path id="Vector_8" d="M8.94 7.06L12.7133 3.28667" stroke="var(--stroke-0, white)" stroke-width="1.25" stroke-linecap="round" stroke-linejoin="round"/>
</g>
<defs>
<clipPath id="clip0_0_33">
<rect width="16" height="16" fill="white"/>
</clipPath>
</defs>
</svg>
