<svg preserveAspectRatio="none" width="100%" height="100%" overflow="visible" style="display: block;" viewBox="0 0 40 40" fill="none" xmlns="http://www.w3.org/2000/svg">
<g id="revenue">
<circle id="Ellipse 2831" cx="20" cy="20" r="20" fill="var(--fill-0, #ECFAFF)"/>
<g id="bar-chart-big">
<path id="Vector" d="M12.5 12.5V27.5H27.5" stroke="var(--stroke-0, #289BFF)" stroke-width="1.5" stroke-linecap="round" stroke-linejoin="round"/>
<path id="Vector_2" d="M18.3333 18.3333H16.6667C16.2064 18.3333 15.8333 18.7064 15.8333 19.1667V23.3333C15.8333 23.7936 16.2064 24.1667 16.6667 24.1667H18.3333C18.7936 24.1667 19.1667 23.7936 19.1667 23.3333V19.1667C19.1667 18.7064 18.7936 18.3333 18.3333 18.3333Z" stroke="var(--stroke-0, #289BFF)" stroke-width="1.5" stroke-linecap="round" stroke-linejoin="round"/>
<path id="Vector_3" d="M25 14.1667H23.3333C22.8731 14.1667 22.5 14.5398 22.5 15V23.3333C22.5 23.7936 22.8731 24.1667 23.3333 24.1667H25C25.4602 24.1667 25.8333 23.7936 25.8333 23.3333V15C25.8333 14.5398 25.4602 14.1667 25 14.1667Z" stroke="var(--stroke-0, #289BFF)" stroke-width="1.5" stroke-linecap="round" stroke-linejoin="round"/>
</g>
</g>
</svg>
