<svg preserveAspectRatio="none" width="100%" height="100%" overflow="visible" style="display: block;" viewBox="0 0 13 13" fill="none" xmlns="http://www.w3.org/2000/svg">
<path id="Icon" d="M6.50004 7.32568V3.42529M4.50004 5.37549H8.50004M3.1667 10.251V11.7692C3.1667 12.1156 3.1667 12.2888 3.23952 12.3777C3.30285 12.4551 3.39888 12.5001 3.5004 12.5C3.61712 12.4999 3.75582 12.3917 4.03321 12.1753L5.62351 10.9347C5.94838 10.6813 6.11082 10.5546 6.29169 10.4645C6.45217 10.3845 6.62299 10.3261 6.79951 10.2908C6.99848 10.251 7.2065 10.251 7.62254 10.251H9.30004C10.4201 10.251 10.9802 10.251 11.408 10.0384C11.7843 9.85145 12.0903 9.5531 12.2821 9.18615C12.5 8.76898 12.5 8.22288 12.5 7.13066V3.62031C12.5 2.5281 12.5 1.982 12.2821 1.56483C12.0903 1.19787 11.7843 0.899531 11.408 0.712559C10.9802 0.5 10.4201 0.5 9.30004 0.5H3.70004C2.57993 0.5 2.01988 0.5 1.59206 0.712559C1.21573 0.899531 0.909771 1.19787 0.718024 1.56483C0.500037 1.982 0.500037 2.5281 0.500037 3.62031V7.65072C0.500037 8.25526 0.500037 8.55753 0.568185 8.80553C0.753119 9.47853 1.29221 10.0042 1.9824 10.1845C2.23673 10.251 2.54672 10.251 3.1667 10.251Z" stroke="var(--stroke-0, #1E252A)" stroke-linecap="round" stroke-linejoin="round"/>
</svg>
