<svg preserveAspectRatio="none" width="100%" height="100%" overflow="visible" style="display: block;" viewBox="0 0 16 16" fill="none" xmlns="http://www.w3.org/2000/svg">
<g id="user-square">
<path id="Vector" d="M12.6667 2H3.33333C2.59695 2 2 2.59695 2 3.33333V12.6667C2 13.403 2.59695 14 3.33333 14H12.6667C13.403 14 14 13.403 14 12.6667V3.33333C14 2.59695 13.403 2 12.6667 2Z" stroke="var(--stroke-0, #3E4C60)" stroke-linecap="round" stroke-linejoin="round"/>
<path id="Vector_2" d="M8 8.66667C9.10457 8.66667 10 7.77124 10 6.66667C10 5.5621 9.10457 4.66667 8 4.66667C6.89543 4.66667 6 5.5621 6 6.66667C6 7.77124 6.89543 8.66667 8 8.66667Z" stroke="var(--stroke-0, #3E4C60)" stroke-linecap="round" stroke-linejoin="round"/>
<path id="Vector_3" d="M4.66667 14V12.6667C4.66667 12.313 4.80714 11.9739 5.05719 11.7239C5.30724 11.4738 5.64638 11.3333 6 11.3333H10C10.3536 11.3333 10.6928 11.4738 10.9428 11.7239C11.1929 11.9739 11.3333 12.313 11.3333 12.6667V14" stroke="var(--stroke-0, #3E4C60)" stroke-linecap="round" stroke-linejoin="round"/>
</g>
</svg>
