<svg preserveAspectRatio="none" width="100%" height="100%" overflow="visible" style="display: block;" viewBox="0 0 17 16" fill="none" xmlns="http://www.w3.org/2000/svg">
<g id="ghost">
<g id="Ellipse 2837" filter="url(#filter0_d_0_16)">
<circle cx="6.375" cy="6.125" r="2.125" fill="var(--fill-0, white)"/>
</g>
<g id="Ellipse 2838" filter="url(#filter1_d_0_16)">
<circle cx="10.625" cy="6.125" r="2.125" fill="var(--fill-0, white)"/>
</g>
<path id="Vector" d="M6.7998 5.59961H6.80587" stroke="var(--stroke-0, black)" stroke-width="2" stroke-linecap="round" stroke-linejoin="round"/>
<path id="Vector_2" d="M10.2002 5.59961H10.2063" stroke="var(--stroke-0, black)" stroke-width="2" stroke-linecap="round" stroke-linejoin="round"/>
<path id="Vector_3" d="M8.66667 1.33301C7.16377 1.33301 5.72243 1.89491 4.65973 2.8951C3.59702 3.8953 3 5.25185 3 6.66634V14.6663L5.125 12.6663L6.89583 14.333L8.66667 12.6663L10.4375 14.333L12.2083 12.6663L14.3333 14.6663V6.66634C14.3333 5.25185 13.7363 3.8953 12.6736 2.8951C11.6109 1.89491 10.1696 1.33301 8.66667 1.33301Z" stroke="var(--stroke-0, #1E252A)" stroke-linecap="round" stroke-linejoin="round"/>
</g>
<defs>
<filter id="filter0_d_0_16" x="4.25" y="4" width="4.25" height="5.25" filterUnits="userSpaceOnUse" color-interpolation-filters="sRGB">
<feFlood flood-opacity="0" result="BackgroundImageFix"/>
<feColorMatrix in="SourceAlpha" type="matrix" values="0 0 0 0 0 0 0 0 0 0 0 0 0 0 0 0 0 0 127 0" result="hardAlpha"/>
<feOffset dy="1"/>
<feComposite in2="hardAlpha" operator="out"/>
<feColorMatrix type="matrix" values="0 0 0 0 0 0 0 0 0 0 0 0 0 0 0 0 0 0 0.25 0"/>
<feBlend mode="normal" in2="BackgroundImageFix" result="effect1_dropShadow_0_16"/>
<feBlend mode="normal" in="SourceGraphic" in2="effect1_dropShadow_0_16" result="shape"/>
</filter>
<filter id="filter1_d_0_16" x="8.5" y="4" width="4.25" height="5.25" filterUnits="userSpaceOnUse" color-interpolation-filters="sRGB">
<feFlood flood-opacity="0" result="BackgroundImageFix"/>
<feColorMatrix in="SourceAlpha" type="matrix" values="0 0 0 0 0 0 0 0 0 0 0 0 0 0 0 0 0 0 127 0" result="hardAlpha"/>
<feOffset dy="1"/>
<feComposite in2="hardAlpha" operator="out"/>
<feColorMatrix type="matrix" values="0 0 0 0 0 0 0 0 0 0 0 0 0 0 0 0 0 0 0.25 0"/>
<feBlend mode="normal" in2="BackgroundImageFix" result="effect1_dropShadow_0_16"/>
<feBlend mode="normal" in="SourceGraphic" in2="effect1_dropShadow_0_16" result="shape"/>
</filter>
</defs>
</svg>
