<svg preserveAspectRatio="none" width="100%" height="100%" overflow="visible" style="display: block;" viewBox="0 0 13.5 13.5" fill="none" xmlns="http://www.w3.org/2000/svg">
<g id="Group 1000002584">
<g id="Vector">
<mask id="path-1-inside-1_0_22" fill="white">
<path d="M9.19437 0.458134C7.75067 -0.102736 6.15801 -0.150063 4.68356 0.324092C3.20911 0.798247 1.94257 1.76504 1.0964 3.06228C0.250243 4.35953 -0.124063 5.9083 0.0362802 7.4488C0.196623 8.98929 0.88186 10.4278 1.97704 11.523C3.07222 12.6181 4.51071 13.3034 6.0512 13.4637C7.5917 13.6241 9.14047 13.2498 10.4377 12.4036C11.735 11.5574 12.7018 10.2909 13.1759 8.81644C13.6501 7.34199 13.6027 5.74933 13.0419 4.30563"/>
</mask>
<path d="M8.83224 1.39026C9.34704 1.59026 9.9265 1.33506 10.1265 0.820263C10.3265 0.305462 10.0713 -0.273996 9.5565 -0.473994L9.19437 0.458134L8.83224 1.39026ZM13.974 3.9435C13.774 3.4287 13.1945 3.1735 12.6797 3.3735C12.1649 3.5735 11.9097 4.15296 12.1097 4.66776L13.0419 4.30563L13.974 3.9435ZM9.19437 0.458134L9.5565 -0.473994C7.89892 -1.11796 6.07031 -1.17229 4.37742 -0.627894L4.68356 0.324092L4.9897 1.27608C6.24571 0.872169 7.60243 0.912485 8.83224 1.39026L9.19437 0.458134ZM4.68356 0.324092L4.37742 -0.627894C2.68453 -0.083494 1.23035 1.02653 0.258833 2.51595L1.0964 3.06228L1.93398 3.60861C2.65478 2.50355 3.73369 1.67999 4.9897 1.27608L4.68356 0.324092ZM1.0964 3.06228L0.258833 2.51595C-0.712686 4.00538 -1.14244 5.78361 -0.958347 7.55232L0.0362802 7.4488L1.03091 7.34527C0.894318 6.033 1.21317 4.71367 1.93398 3.60861L1.0964 3.06228ZM0.0362802 7.4488L-0.958347 7.55232C-0.774249 9.32104 0.0125044 10.9726 1.26993 12.2301L1.97704 11.523L2.68414 10.8159C1.75122 9.88292 1.1675 8.65754 1.03091 7.34527L0.0362802 7.4488ZM1.97704 11.523L1.26993 12.2301C2.52736 13.4875 4.17896 14.2742 5.94768 14.4583L6.0512 13.4637L6.15473 12.4691C4.84246 12.3325 3.61707 11.7488 2.68414 10.8159L1.97704 11.523ZM6.0512 13.4637L5.94768 14.4583C7.71639 14.6424 9.49462 14.2127 10.984 13.2412L10.4377 12.4036L9.89139 11.566C8.78633 12.2868 7.467 12.6057 6.15473 12.4691L6.0512 13.4637ZM10.4377 12.4036L10.984 13.2412C12.4735 12.2696 13.5835 10.8155 14.1279 9.12258L13.1759 8.81644L12.2239 8.5103C11.82 9.76631 10.9964 10.8452 9.89139 11.566L10.4377 12.4036ZM13.1759 8.81644L14.1279 9.12258C14.6723 7.42969 14.618 5.60108 13.974 3.9435L13.0419 4.30563L12.1097 4.66776C12.5875 5.89757 12.6278 7.25429 12.2239 8.5103L13.1759 8.81644Z" fill="var(--stroke-0, black)" mask="url(#path-1-inside-1_0_22)"/>
</g>
<g id="Group 1000002583">
<path id="Vector_2" d="M7.03926 7.61523C7.67651 7.61523 8.19311 7.09869 8.19311 6.46151C8.19311 5.82433 7.67651 5.30779 7.03926 5.30779C6.402 5.30779 5.8854 5.82433 5.8854 6.46151C5.8854 7.09869 6.402 7.61523 7.03926 7.61523Z" stroke="var(--stroke-0, black)" stroke-linecap="round" stroke-linejoin="round"/>
<path id="Vector_3" d="M8.30808 5.19262L10.385 3.11569" stroke="var(--stroke-0, black)" stroke-linecap="round" stroke-linejoin="round"/>
</g>
</g>
</svg>
