<svg preserveAspectRatio="none" width="100%" height="100%" overflow="visible" style="display: block;" viewBox="0 0 52 13.7157" fill="none" xmlns="http://www.w3.org/2000/svg">
<g id="Frame 1000005233">
<path id="Vector" d="M15.9673 7.51575L15.4973 10.8491C15.3818 11.6425 14.9855 12.3681 14.3805 12.8941C13.7754 13.4201 13.0017 13.7117 12.2 13.7157H3.33333C2.4496 13.7147 1.60237 13.3632 0.97748 12.7383C0.352588 12.1134 0.00105857 11.2661 0 10.3824L0 7.04908C0.00105857 6.16535 0.352588 5.31812 0.97748 4.69323C1.60237 4.06833 2.4496 3.7168 3.33333 3.71575H5.14133L6.41734 1.13041C6.63185 0.694683 6.99584 0.350578 7.44292 0.160862C7.89 -0.0288543 8.39038 -0.0515387 8.8528 0.0969419C9.31522 0.245423 9.70885 0.555175 9.96191 0.969706C10.215 1.38424 10.3106 1.87592 10.2313 2.35508L10.0073 3.71575H12.6667C13.1439 3.71572 13.6155 3.81815 14.0497 4.01611C14.4838 4.21407 14.8705 4.50295 15.1834 4.86321C15.4963 5.22346 15.7282 5.64671 15.8635 6.10432C15.9987 6.56194 16.0341 7.04326 15.9673 7.51575ZM3.33333 12.3824H4.66667V5.04908H3.33333C2.8029 5.04908 2.29419 5.25979 1.91912 5.63487C1.54405 6.00994 1.33333 6.51865 1.33333 7.04908V10.3824C1.33333 10.9128 1.54405 11.4216 1.91912 11.7966C2.29419 12.1717 2.8029 12.3824 3.33333 12.3824ZM14.176 5.73708C13.9883 5.5211 13.7564 5.34792 13.496 5.22923C13.2356 5.11054 12.9528 5.04911 12.6667 5.04908H9.222C9.1253 5.0491 9.02976 5.02808 8.942 4.98749C8.85423 4.9469 8.77635 4.8877 8.71375 4.814C8.65115 4.7403 8.60533 4.65387 8.57947 4.56069C8.55362 4.46752 8.54834 4.36983 8.564 4.27441L8.916 2.14108C8.93291 2.04206 8.92775 1.94053 8.9009 1.84373C8.87405 1.74693 8.82617 1.65724 8.76067 1.58108C8.68387 1.49829 8.58851 1.43491 8.48244 1.39617C8.37637 1.35742 8.26261 1.34441 8.15053 1.35821C8.03845 1.37201 7.93125 1.41222 7.83774 1.47554C7.74423 1.53885 7.66709 1.62347 7.61267 1.72241L6.15333 4.67708C6.11484 4.75098 6.06283 4.81701 6 4.87175V12.3824H12.2C12.6815 12.3807 13.1464 12.2059 13.5098 11.8901C13.8733 11.5742 14.1111 11.1383 14.18 10.6617L14.6507 7.32841C14.6901 7.04464 14.6682 6.7557 14.5863 6.48115C14.5044 6.2066 14.3645 5.95285 14.176 5.73708Z" fill="var(--fill-0, #289BFF)"/>
<path id="Vector_2" d="M51.9672 6.2L51.4972 2.86667C51.3816 2.07329 50.9854 1.34767 50.3803 0.821645C49.7752 0.295617 49.0016 0.00408031 48.1998 0H39.3332C38.4494 0.00105857 37.6022 0.352588 36.9773 0.97748C36.3524 1.60237 36.0009 2.4496 35.9998 3.33333V6.66667C36.0009 7.5504 36.3524 8.39763 36.9773 9.02252C37.6022 9.64741 38.4494 9.99894 39.3332 10H41.1412L42.4172 12.5853C42.6317 13.0211 42.9957 13.3652 43.4428 13.5549C43.8898 13.7446 44.3902 13.7673 44.8526 13.6188C45.3151 13.4703 45.7087 13.1606 45.9617 12.746C46.2148 12.3315 46.3104 11.8398 46.2312 11.3607L46.0072 10H48.6665C49.1437 10 49.6153 9.89759 50.0495 9.69963C50.4837 9.50167 50.8703 9.2128 51.1832 8.85254C51.4961 8.49228 51.7281 8.06904 51.8633 7.61142C51.9986 7.15381 52.034 6.67248 51.9672 6.2ZM39.3332 1.33333H40.6665V8.66667H39.3332C38.8027 8.66667 38.294 8.45595 37.919 8.08088C37.5439 7.70581 37.3332 7.1971 37.3332 6.66667V3.33333C37.3332 2.8029 37.5439 2.29419 37.919 1.91912C38.294 1.54405 38.8027 1.33333 39.3332 1.33333ZM50.1758 7.97867C49.9881 8.19465 49.7562 8.36783 49.4959 8.48652C49.2355 8.60521 48.9527 8.66664 48.6665 8.66667H45.2218C45.1251 8.66665 45.0296 8.68766 44.9418 8.72826C44.8541 8.76885 44.7762 8.82805 44.7136 8.90175C44.651 8.97544 44.6052 9.06188 44.5793 9.15505C44.5535 9.24823 44.5482 9.34592 44.5638 9.44133L44.9158 11.5747C44.9327 11.6737 44.9276 11.7752 44.9007 11.872C44.8739 11.9688 44.826 12.0585 44.7605 12.1347C44.6837 12.2175 44.5883 12.2808 44.4823 12.3196C44.3762 12.3583 44.2624 12.3713 44.1504 12.3575C44.0383 12.3437 43.9311 12.3035 43.8376 12.2402C43.7441 12.1769 43.6669 12.0923 43.6125 11.9933L42.1532 9.03867C42.1147 8.96477 42.0627 8.89874 41.9998 8.844V1.33333H48.1998C48.6813 1.33509 49.1462 1.50982 49.5096 1.82567C49.8731 2.14151 50.1109 2.57744 50.1798 3.054L50.6505 6.38733C50.69 6.6711 50.668 6.96004 50.5861 7.23459C50.5042 7.50914 50.3643 7.76289 50.1758 7.97867Z" fill="var(--fill-0, #289BFF)"/>
</g>
</svg>
