<svg preserveAspectRatio="none" width="100%" height="100%" overflow="visible" style="display: block;" viewBox="0 0 14 14" fill="none" xmlns="http://www.w3.org/2000/svg">
<g id="unplug">
<path id="Vector" d="M11.0834 3.41675L12.8334 1.66675" stroke="var(--stroke-0, white)" stroke-linecap="round" stroke-linejoin="round"/>
<path id="Vector_2" d="M1.16663 13.3333L2.91663 11.5833" stroke="var(--stroke-0, white)" stroke-linecap="round" stroke-linejoin="round"/>
<path id="Vector_3" d="M3.67502 12.3417C3.80508 12.4722 3.95963 12.5757 4.12981 12.6464C4.29998 12.7171 4.48243 12.7534 4.66669 12.7534C4.85095 12.7534 5.03339 12.7171 5.20357 12.6464C5.37374 12.5757 5.52829 12.4722 5.65835 12.3417L7.00002 11L3.50002 7.5L2.15835 8.84167C2.02784 8.97173 1.92428 9.12628 1.85362 9.29645C1.78296 9.46663 1.74658 9.64907 1.74658 9.83333C1.74658 10.0176 1.78296 10.2 1.85362 10.3702C1.92428 10.5404 2.02784 10.6949 2.15835 10.825L3.67502 12.3417Z" stroke="var(--stroke-0, white)" stroke-linecap="round" stroke-linejoin="round"/>
<path id="Vector_4" d="M4.375 8.37508L5.83333 6.91675" stroke="var(--stroke-0, white)" stroke-linecap="round" stroke-linejoin="round"/>
<path id="Vector_5" d="M6.125 10.1251L7.58333 8.66675" stroke="var(--stroke-0, white)" stroke-linecap="round" stroke-linejoin="round"/>
<path id="Vector_6" d="M7 4.00002L10.5 7.50002L11.8417 6.15835C11.9722 6.02829 12.0757 5.87374 12.1464 5.70357C12.2171 5.53339 12.2534 5.35095 12.2534 5.16669C12.2534 4.98243 12.2171 4.79998 12.1464 4.62981C12.0757 4.45963 11.9722 4.30508 11.8417 4.17502L10.325 2.65835C10.1949 2.52784 10.0404 2.42428 9.87021 2.35362C9.70004 2.28296 9.51759 2.24658 9.33333 2.24658C9.14907 2.24658 8.96663 2.28296 8.79645 2.35362C8.62628 2.42428 8.47173 2.52784 8.34167 2.65835L7 4.00002Z" stroke="var(--stroke-0, white)" stroke-linecap="round" stroke-linejoin="round"/>
</g>
</svg>
